<svg width="24" height="24" viewBox="0 0 24 24" fill="none" xmlns="http://www.w3.org/2000/svg">
<path fill-rule="evenodd" clip-rule="evenodd" d="M11.1317 2.50386C11.3098 2.19229 11.6411 2 12 2C12.3588 2 12.6902 2.19229 12.8682 2.50386L16.2186 8.36711L21.2928 3.29289C21.5967 2.98904 22.0607 2.91328 22.4454 3.1047C22.8301 3.29613 23.0496 3.71194 22.9904 4.13757L21.3238 16.1376C21.2551 16.6319 20.8324 17 20.3333 17L10.5 17C9.94767 17 9.49995 16.5523 9.49995 16C9.49995 15.4477 9.94767 15 10.4999 15L19.4626 15L20.5994 6.81475L16.7071 10.7071C16.4867 10.9275 16.1761 11.0325 15.8672 10.9912C15.5583 10.9498 15.2863 10.7667 15.1317 10.4961L12 5.01556L8.86819 10.4961C8.71356 10.7667 8.4416 10.9498 8.13268 10.9912C7.82377 11.0325 7.51323 10.9275 7.29284 10.7071L3.40049 6.81475L4.53733 15H6.49995C7.05224 15 7.49995 15.4477 7.49995 16C7.49995 16.5523 7.05224 17 6.49995 17H3.66662C3.16749 17 2.74479 16.6319 2.67613 16.1376L1.00946 4.13757C0.950342 3.71194 1.16976 3.29613 1.55448 3.1047C1.9392 2.91328 2.4032 2.98904 2.70706 3.29289L7.78128 8.36711L11.1317 2.50386ZM3.99999 20C3.44771 20 2.99999 20.4477 2.99999 21C2.99999 21.5523 3.44771 22 3.99999 22H20C20.5523 22 21 21.5523 21 21C21 20.4477 20.5523 20 20 20H3.99999Z" fill="#001A34"/>
</svg>
