<svg width="24" height="24" viewBox="0 0 24 24" fill="none" xmlns="http://www.w3.org/2000/svg">
<path d="M20.657 3.32054C20.2168 2.89516 19.5168 2.90108 19.084 3.33385L14.713 7.70379C14.4751 7.94162 14.1336 8.044 13.8041 7.97626L4.2152 6.00514C4.10457 5.9824 4.00093 6.06688 4.00093 6.17979C4.00093 6.25412 4.04705 6.32065 4.11666 6.34675L11.3555 9.06067C11.6589 9.17444 11.8885 9.42814 11.9714 9.74139C12.0543 10.0546 11.9802 10.3886 11.7728 10.6375L6.77044 16.6389C6.47322 16.9955 5.96969 17.1008 5.55444 16.8932L5.06592 16.649L7.3522 18.9348L7.10795 18.4464C6.90032 18.0312 7.00565 17.5278 7.36231 17.2307L13.3651 12.2295C13.6141 12.0221 13.9481 11.9481 14.2615 12.031C14.5748 12.1138 14.8285 12.3433 14.9423 12.6467L17.656 19.8815C17.6827 19.9525 17.7505 19.9995 17.8263 19.9995C17.9416 19.9995 18.0278 19.8938 18.0045 19.7809L16.0271 10.1993C15.9591 9.86969 16.0615 9.52795 16.2995 9.28995L20.6705 4.92001C21.1138 4.47675 21.1077 3.75623 20.657 3.32054ZM17.6691 1.91931C18.874 0.714641 20.8225 0.698156 22.0477 1.88226C23.3025 3.09506 23.3195 5.1007 22.0854 6.33455L18.0958 10.3232L19.9641 19.3767C20.2436 20.7307 19.2092 22 17.8263 22C16.9164 22 16.102 21.4357 15.7825 20.5839L13.5636 14.6682L9.252 18.2603L9.26535 18.287C9.8358 19.4277 9.61219 20.8053 8.71022 21.707C8.5226 21.8946 8.26813 22 8.00279 22C7.73745 22 7.48298 21.8946 7.29535 21.707L2.29303 16.7059C1.90232 16.3153 1.90232 15.682 2.29303 15.2913C3.195 14.3896 4.57294 14.166 5.71385 14.7363L5.74055 14.7497L9.33353 10.4391L3.41408 8.21984C2.5635 7.90095 2 7.088 2 6.17979C2 4.80009 3.26644 3.76779 4.61818 4.04566L13.6792 5.90827L17.6691 1.91931Z" fill="black"/>
</svg>
