<svg width="42" height="42" viewBox="0 0 42 42" fill="none" xmlns="http://www.w3.org/2000/svg">
<rect width="42" height="42" rx="12" fill="#0077FF"/>
<path d="M23.5944 25.4226C22.5711 25.1669 21.8535 24.2515 21.8535 23.2016V10.8327C21.8535 9.64026 22.9804 8.76569 24.1427 9.05604L31.5033 10.8948C32.5266 11.1504 33.2441 12.0657 33.2441 13.1156V25.4845C33.2441 26.677 32.1173 27.5516 30.955 27.2613L23.5944 25.4226Z" fill="white"/>
<path d="M9.74084 31.1179C8.7175 30.8622 8 29.9468 8 28.897V16.5281C8 15.3356 9.12679 14.461 10.2891 14.7513L17.6497 16.5901C18.673 16.8457 19.3906 17.7611 19.3906 18.8109V31.1798C19.3906 32.3723 18.2637 33.2469 17.1014 32.9565L9.74084 31.1179Z" fill="white"/>
<path d="M16.6676 28.2703C15.6443 28.0147 14.9268 27.0993 14.9268 26.0494V13.6806C14.9268 12.4881 16.0536 11.6135 17.2159 11.9038L24.5765 13.7425C25.5998 13.9982 26.3173 14.9136 26.3173 15.9634V28.3323C26.3173 29.5248 25.1905 30.3994 24.0282 30.1091L16.6676 28.2703Z" fill="white"/>
<path d="M21.4851 29.477C21.1627 29.3949 20.9333 29.1099 20.9221 28.7774L20.6019 19.3314C20.5093 18.0812 19.5812 17.0869 18.6114 16.7941C18.557 16.7777 18.4988 16.7998 18.4666 16.8466C18.4338 16.8942 18.4465 16.9601 18.4922 16.9955C18.7317 17.1809 19.3908 17.7859 19.3908 18.8293L19.3888 28.9458L21.4851 29.477Z" fill="#2B71F6"/>
<path d="M28.4136 26.6266C28.0915 26.5461 27.8618 26.2619 27.8506 25.9301L27.5303 16.4847C27.4377 15.2345 26.5097 14.2402 25.5399 13.9474C25.4855 13.931 25.4273 13.9531 25.3951 13.9999C25.3623 14.0475 25.375 14.1135 25.4207 14.1488C25.6601 14.3342 26.3193 14.9392 26.3193 15.9827L26.3173 26.1025L28.4136 26.6266Z" fill="#2B71F6"/>
</svg>
