<svg width="14" height="16" viewBox="0 0 14 16" fill="none" xmlns="http://www.w3.org/2000/svg">
<path d="M1.10557 0.552786C1.27496 0.214002 1.62123 0 2 0C3.3935 0 4.52824 0.297322 5.43082 0.830967C6.33612 1.36622 6.94887 2.1045 7.3494 2.89084C8.13136 4.42602 8.11524 6.15714 7.99201 7.12615C7.94562 7.49096 7.70274 7.80087 7.3596 7.93311C7.01645 8.06535 6.62841 7.99858 6.3492 7.75925C6.17152 7.61253 5.97291 7.48794 5.77114 7.37789C5.38436 7.16691 4.93057 6.99999 4.5 6.99999C3.85521 6.99999 3.24743 7.19343 2.80894 7.60452C2.38659 8.00047 2 8.71189 2 9.99998C2 11.1358 2.55994 12.1131 3.48894 12.8356C4.42877 13.5666 5.70986 14 7.00001 14C8.29014 14 9.57122 13.5666 10.5111 12.8356C11.4401 12.1131 12 11.1357 12 9.99998C12 8.68569 11.6383 7.95302 11.2689 7.5573C10.8956 7.15733 10.4217 6.99998 10 6.99999C9.44773 6.99999 9.00001 6.55228 9 6C8.99999 5.44771 9.4477 4.99999 9.99999 4.99999C10.9116 4.99997 11.9377 5.34263 12.7311 6.19267C13.5284 7.04696 14 8.3143 14 9.99998C14 11.8642 13.0599 13.3869 11.7389 14.4143C10.4288 15.4334 8.70986 16 6.99999 16C5.29014 16 3.57123 15.4334 2.26106 14.4143C0.940056 13.3869 0 11.8642 0 9.99998C0 8.28806 0.530077 6.99948 1.44106 6.14544C2.3359 5.30653 3.47812 4.99999 4.5 4.99999C5.05397 4.99999 5.56781 5.12541 6.00461 5.28911C5.93986 4.78849 5.80656 4.26838 5.56727 3.79859C5.31502 3.30336 4.9486 2.86928 4.41293 2.55257C3.98856 2.30166 3.26303 2.07289 2.5 2C2.3845 2.38306 2.462 2.96784 2.73 3.31676C3.095 3.70891 3.089 4.32522 2.70711 4.70711C2.31658 5.09763 1.68342 5.09763 1.29289 4.70711C0.972792 4.37523 0.76568 3.93583 0.654858 3.49254C0.466888 2.74066 0.508561 1.74681 1.10557 0.552786Z" fill="#00A6A6"/>
</svg>
